<svg width="45" height="45" viewBox="0 0 45 45" fill="none" xmlns="http://www.w3.org/2000/svg">
<path d="M13.0435 45.0005C11.8478 45.0005 10.8246 44.5602 9.97391 43.6797C9.12174 42.7977 8.69565 41.738 8.69565 40.5005C8.69565 39.263 9.12174 38.2032 9.97391 37.3212C10.8246 36.4407 11.8478 36.0005 13.0435 36.0005C14.2391 36.0005 15.2623 36.4407 16.113 37.3212C16.9652 38.2032 17.3913 39.263 17.3913 40.5005C17.3913 41.738 16.9652 42.7977 16.113 43.6797C15.2623 44.5602 14.2391 45.0005 13.0435 45.0005ZM34.7826 45.0005C33.587 45.0005 32.5638 44.5602 31.713 43.6797C30.8609 42.7977 30.4348 41.738 30.4348 40.5005C30.4348 39.263 30.8609 38.2032 31.713 37.3212C32.5638 36.4407 33.587 36.0005 34.7826 36.0005C35.9783 36.0005 37.0022 36.4407 37.8543 37.3212C38.7051 38.2032 39.1304 39.263 39.1304 40.5005C39.1304 41.738 38.7051 42.7977 37.8543 43.6797C37.0022 44.5602 35.9783 45.0005 34.7826 45.0005ZM5.70652 33.7505L12.1739 21.6005L4.34783 4.50049H0V0.000488281H7.11957L16.3587 20.2505H31.6304L40.0543 4.50049H45L34.1848 24.7505H15.4348L13.0435 29.2505H39.1304V33.7505H5.70652ZM23.913 18.0005L20.8696 14.8505L24.2935 11.2505H15.2174V6.75049H24.2935L20.8152 3.15049L23.913 0.000488281L32.6087 9.00049L23.913 18.0005Z" fill="white"/>
</svg>
