<svg width="45" height="39" viewBox="0 0 45 39" fill="none" xmlns="http://www.w3.org/2000/svg">
<path d="M0 39V0H4.09091V26H20.4545V5.2H36.8182C39.0682 5.2 40.9943 6.21833 42.5966 8.255C44.1989 10.2917 45 12.74 45 15.6V39H40.9091V31.2H4.09091V39H0ZM12.2727 23.4C10.5682 23.4 9.11932 22.6417 7.92614 21.125C6.73295 19.6083 6.13636 17.7667 6.13636 15.6C6.13636 13.4333 6.73295 11.5917 7.92614 10.075C9.11932 8.55833 10.5682 7.8 12.2727 7.8C13.9773 7.8 15.4261 8.55833 16.6193 10.075C17.8125 11.5917 18.4091 13.4333 18.4091 15.6C18.4091 17.7667 17.8125 19.6083 16.6193 21.125C15.4261 22.6417 13.9773 23.4 12.2727 23.4ZM24.5455 26H40.9091V15.6C40.9091 14.17 40.5089 12.9454 39.7084 11.9262C38.9066 10.9087 37.9432 10.4 36.8182 10.4H24.5455V26ZM12.2727 18.2C12.8523 18.2 13.3384 17.9504 13.7311 17.4512C14.1225 16.9537 14.3182 16.3367 14.3182 15.6C14.3182 14.8633 14.1225 14.2454 13.7311 13.7462C13.3384 13.2487 12.8523 13 12.2727 13C11.6932 13 11.207 13.2487 10.8143 13.7462C10.423 14.2454 10.2273 14.8633 10.2273 15.6C10.2273 16.3367 10.423 16.9537 10.8143 17.4512C11.207 17.9504 11.6932 18.2 12.2727 18.2ZM24.5455 10.4V26V10.4Z" fill="white"/>
</svg>
