<svg width="1202" height="52" viewBox="0 0 1202 52" fill="none" xmlns="http://www.w3.org/2000/svg">
<path d="M30.7646 52H19.3022V12.2661H0.662109V0.803711H49.3682V12.2661H30.7646V52ZM111.441 52H99.9785V32.1514H64.8955V52H53.3965V0.803711H64.8955V20.689H99.9785V0.803711H111.441V52ZM176.26 52H118.216V40.5376H176.26V52ZM176.26 12.4492H118.216V0.986816H176.26V12.4492ZM171.573 32.2246H122.867V20.7622H171.573V32.2246ZM260.269 52H246.023L236.026 38.5234H213.687V52H202.225V27.061H241.409C243.436 27.061 245.169 26.3408 246.609 24.9004C248.05 23.46 248.77 21.7266 248.77 19.7002C248.77 17.6494 248.05 15.9038 246.609 14.4634C245.169 13.0229 243.436 12.3027 241.409 12.3027H202.225V0.803711L241.409 0.840332C243.997 0.840332 246.426 1.34082 248.697 2.3418C253.335 4.39258 256.692 7.7373 258.768 12.376C259.769 14.8174 260.269 17.2588 260.269 19.7002C260.269 22.1172 259.769 24.5464 258.768 26.9878C256.766 31.5044 253.519 34.8003 249.026 36.8755L260.269 52ZM330.362 52H317.251L296.707 15.3057L276.126 52H263.016L291.69 0.803711H301.688L330.362 52ZM400.491 52H389.029V18.5283L371.487 43.5771H362.112L344.607 18.5283V52H333.108V0.803711H346.109L366.8 30.3569L387.491 0.803711H400.491V52ZM470.547 52H457.437L436.893 15.3057L416.312 52H403.201L431.875 0.803711H441.873L470.547 52ZM531.338 52H473.294V40.5376H531.338V52ZM531.338 12.4492H473.294V0.986816H531.338V12.4492ZM526.651 32.2246H477.945V20.7622H526.651V32.2246ZM596.158 52H581.912L571.915 38.5234H549.576V52H538.113V27.061H577.298C579.324 27.061 581.058 26.3408 582.498 24.9004C583.938 23.46 584.659 21.7266 584.659 19.7002C584.659 17.6494 583.938 15.9038 582.498 14.4634C581.058 13.0229 579.324 12.3027 577.298 12.3027H538.113V0.803711L577.298 0.840332C579.886 0.840332 582.315 1.34082 584.585 2.3418C589.224 4.39258 592.581 7.7373 594.656 12.376C595.657 14.8174 596.158 17.2588 596.158 19.7002C596.158 22.1172 595.657 24.5464 594.656 26.9878C592.654 31.5044 589.407 34.8003 584.915 36.8755L596.158 52ZM666.25 52H653.14L632.596 15.3057L612.015 52H598.904L627.579 0.803711H637.576L666.25 52ZM746.597 52H688.553V40.5376H746.597V52ZM746.597 12.4492H688.553V0.986816H746.597V12.4492ZM741.91 32.2246H693.204V20.7622H741.91V32.2246ZM806.546 52H791.678L778.458 35.9966L765.237 52H750.369L771.023 27.0244L749.344 0.803711H764.212L778.458 18.0156L792.703 0.803711H807.571L785.892 27.0244L806.546 52ZM821.89 52H810.428V27.061H849.612C851.663 27.061 853.409 26.3408 854.849 24.9004C856.29 23.46 857.01 21.7266 857.01 19.7002C857.01 17.6494 856.29 15.9038 854.849 14.4634C853.409 13.0229 851.663 12.3027 849.612 12.3027H810.428V0.803711L849.612 0.840332C852.2 0.840332 854.642 1.34082 856.937 2.3418C861.575 4.39258 864.92 7.7373 866.971 12.376C867.972 14.6709 868.472 17.1123 868.472 19.7002C868.472 22.2637 867.972 24.6929 866.971 26.9878C864.92 31.6265 861.575 34.9712 856.937 37.022C854.642 38.0229 852.2 38.5234 849.612 38.5234H821.89V52ZM927.725 52H914.615L894.07 15.3057L873.489 52H860.379L889.053 0.803711H899.051L927.725 52ZM988.479 52H974.6L941.934 15.3057V52H930.472V0.803711H944.314L977.017 37.498V0.803711H988.479V52ZM1035.57 52H1010.85C1008.63 52 1006.52 51.5972 1004.52 50.7915C1000.49 49.1802 997.513 46.4214 995.584 42.5151C994.656 40.5864 994.192 38.5234 994.192 36.3262H1005.69C1005.69 37.2295 1005.96 37.9985 1006.5 38.6333C1007.03 39.2437 1007.69 39.7075 1008.47 40.0249C1009.28 40.3423 1010.07 40.501 1010.85 40.501H1035.57C1036.36 40.501 1037.15 40.3423 1037.95 40.0249C1038.76 39.7075 1039.43 39.2437 1039.97 38.6333C1040.51 37.9985 1040.77 37.2295 1040.77 36.3262C1040.77 35.4473 1040.51 34.7026 1039.97 34.0923C1039.43 33.4575 1038.76 32.9814 1037.95 32.6641C1037.15 32.3223 1036.36 32.1514 1035.57 32.1514H1010.85C1008.63 32.1514 1006.52 31.7607 1004.52 30.9795C1000.49 29.3682 997.513 26.6094 995.584 22.7031C994.656 20.7744 994.192 18.7114 994.192 16.5142C994.192 14.3169 994.656 12.2539 995.584 10.3252C997.513 6.41895 1000.49 3.66016 1004.52 2.04883C1006.52 1.26758 1008.63 0.876953 1010.85 0.876953H1035.57C1037.82 0.876953 1039.93 1.26758 1041.91 2.04883C1045.96 3.66016 1048.95 6.41895 1050.88 10.3252C1051.79 12.2539 1052.24 14.3169 1052.24 16.5142H1040.77C1040.77 15.6353 1040.51 14.8906 1039.97 14.2803C1039.43 13.6455 1038.76 13.1694 1037.95 12.8521C1037.15 12.5103 1036.36 12.3394 1035.57 12.3394H1010.85C1010.07 12.3394 1009.28 12.5103 1008.47 12.8521C1007.69 13.1694 1007.03 13.6455 1006.5 14.2803C1005.96 14.8906 1005.69 15.6353 1005.69 16.5142C1005.69 17.4175 1005.96 18.1743 1006.5 18.7847C1007.03 19.395 1007.69 19.8711 1008.47 20.2129C1009.28 20.5303 1010.07 20.689 1010.85 20.689H1035.57C1037.82 20.689 1039.93 21.0918 1041.91 21.8975C1045.96 23.5088 1048.95 26.2676 1050.88 30.1738C1051.79 32.1025 1052.24 34.1533 1052.24 36.3262C1052.24 38.5234 1051.79 40.5864 1050.88 42.5151C1048.95 46.4214 1045.96 49.1802 1041.91 50.7915C1039.93 51.5972 1037.82 52 1035.57 52ZM1071.21 52H1059.74V0.803711H1071.21V52ZM1119.33 52H1094.64C1092.35 52 1090.19 51.5605 1088.16 50.6816C1084.06 48.875 1081.09 45.9087 1079.26 41.7827C1078.41 39.7808 1077.98 37.6323 1077.98 35.3374V17.6494C1077.98 15.3789 1078.41 13.2305 1079.26 11.2041C1081.09 7.07812 1084.06 4.11182 1088.16 2.30518C1090.19 1.42627 1092.35 0.986816 1094.64 0.986816H1119.33C1121.6 0.986816 1123.75 1.42627 1125.77 2.30518C1129.87 4.11182 1132.84 7.07812 1134.67 11.2041C1135.55 13.2305 1135.99 15.3789 1135.99 17.6494V35.3374C1135.99 37.6323 1135.55 39.7808 1134.67 41.7827C1132.84 45.9087 1129.87 48.875 1125.77 50.6816C1123.75 51.5605 1121.6 52 1119.33 52ZM1119.33 40.5376C1120.77 40.5376 1121.99 40.0371 1122.99 39.0361C1123.99 38.0107 1124.49 36.7778 1124.49 35.3374V17.6494C1124.49 16.209 1123.99 14.9883 1122.99 13.9873C1121.99 12.9619 1120.77 12.4492 1119.33 12.4492H1094.64C1093.2 12.4492 1091.97 12.9619 1090.95 13.9873C1089.94 14.9883 1089.44 16.209 1089.44 17.6494V35.3374C1089.44 36.7778 1089.94 38.0107 1090.95 39.0361C1091.97 40.0371 1093.2 40.5376 1094.64 40.5376H1119.33ZM1201.47 52H1187.59L1154.92 15.3057V52H1143.46V0.803711H1157.3L1190.01 37.498V0.803711H1201.47V52Z" fill="url(#paint0_linear_1_2192)"/>
<defs>
<linearGradient id="paint0_linear_1_2192" x1="-3" y1="24.5" x2="1206" y2="24.5" gradientUnits="userSpaceOnUse">
<stop stop-color="#FFE259"/>
<stop offset="1" stop-color="#FFA751"/>
</linearGradient>
</defs>
</svg>
