<svg width="41" height="41" viewBox="0 0 41 41" fill="none" xmlns="http://www.w3.org/2000/svg">
<path d="M3.39551 0.231445C6.25283 3.12656 8.17764 6.48574 9.71572 9.82119C10.1464 8.7665 10.3573 7.87002 11.3769 6.98232C15.5077 9.31143 16.6767 10.788 17.037 14.0487H22.9081C23.0663 10.8847 23.5761 9.10049 26.1161 6.77051C27.5136 7.86123 27.8739 9.13564 28.5858 10.3485C29.3329 6.92959 31.8642 3.20479 35.3271 1.39336C30.7128 0.377344 25.7909 1.35557 21.8534 2.93496C22.6708 3.49658 23.8485 3.92197 24.2177 4.64883C22.5478 5.50928 20.746 8.371 19.7177 10.744C18.4784 8.53799 15.8944 6.04717 13.3896 4.79912C14.4003 3.78135 15.411 3.41133 16.4218 2.7873C13.5214 1.17275 8.32705 0.372949 3.39551 0.231445ZM4.17334 15.6308L0.547852 25.2987H10.1112L13.7323 15.6308H4.17334ZM16.0175 15.6308L19.6386 25.2987H40.4511L36.83 15.6308H16.0175ZM14.0839 19.1991L11.2011 26.8808H4.41592V40.7675H14.0839V19.1991ZM15.6659 19.1991V40.7675H36.5839V26.8808H18.5487L15.6659 19.1991Z" fill="white"/>
</svg>
