<svg width="795" height="239" viewBox="0 0 795 239" fill="none" xmlns="http://www.w3.org/2000/svg">
<g opacity="0.99" filter="url(#filter0_d_1_2207)">
<path d="M151.891 74H131.567L117.304 54.7734H85.4341V74H69.0811V38.4204H124.984C127.875 38.4204 130.348 37.3929 132.403 35.3379C134.458 33.2829 135.486 30.8099 135.486 27.9189C135.486 24.9932 134.458 22.5028 132.403 20.4478C130.348 18.3927 127.875 17.3652 124.984 17.3652H69.0811V0.959961L124.984 1.01221C128.676 1.01221 132.142 1.72624 135.381 3.1543C141.999 6.08008 146.788 10.8519 149.749 17.4697C151.177 20.9528 151.891 24.4359 151.891 27.9189C151.891 31.3672 151.177 34.8328 149.749 38.3159C146.893 44.7596 142.26 49.4618 135.852 52.4224L151.891 74ZM251.89 74H233.186L203.876 21.6494L174.514 74H155.81L196.718 0.959961H210.981L251.89 74ZM351.941 74H335.588V26.2471L310.562 61.9834H297.188L272.214 26.2471V74H255.809V0.959961H274.356L303.875 43.1226L333.394 0.959961H351.941V74ZM451.888 74H433.184L403.874 21.6494L374.512 74H355.808L396.716 0.959961H410.979L451.888 74ZM538.617 74H455.807V57.647H538.617V74ZM538.617 17.5742H455.807V1.22119H538.617V17.5742ZM531.929 45.7871H462.442V29.4341H531.929V45.7871ZM631.092 74H610.769L596.505 54.7734H564.635V74H548.282V38.4204H604.186C607.076 38.4204 609.549 37.3929 611.604 35.3379C613.66 33.2829 614.687 30.8099 614.687 27.9189C614.687 24.9932 613.66 22.5028 611.604 20.4478C609.549 18.3927 607.076 17.3652 604.186 17.3652H548.282V0.959961L604.186 1.01221C607.878 1.01221 611.343 1.72624 614.583 3.1543C621.2 6.08008 625.99 10.8519 628.95 17.4697C630.378 20.9528 631.092 24.4359 631.092 27.9189C631.092 31.3672 630.378 34.8328 628.95 38.3159C626.094 44.7596 621.462 49.4618 615.053 52.4224L631.092 74ZM731.091 74H712.387L683.077 21.6494L653.715 74H635.011L675.919 0.959961H690.183L731.091 74ZM36.375 199H20.022V125.96H36.375V199ZM130.888 199H111.087L64.4834 146.649V199H48.1304V125.96H67.8794L114.535 178.311V125.96H130.888V199ZM188.986 199H142.591V126.221H188.986C194.001 126.221 198.721 127.179 203.145 129.095C212.096 133.031 218.557 139.492 222.528 148.478C224.444 152.902 225.401 157.604 225.401 162.584C225.401 167.6 224.444 172.32 222.528 176.743C218.557 185.695 212.096 192.156 203.145 196.126C198.721 198.042 194.001 199 188.986 199ZM188.986 182.647C192.678 182.647 196.039 181.741 199.069 179.93C202.1 178.119 204.52 175.698 206.332 172.668C208.143 169.603 209.048 166.242 209.048 162.584C209.048 158.927 208.143 155.583 206.332 152.553C204.52 149.523 202.1 147.102 199.069 145.291C196.039 143.48 192.678 142.574 188.986 142.574H158.944V182.647H188.986ZM292.485 199H257.271C253.997 199 250.932 198.373 248.076 197.119C242.225 194.542 237.993 190.31 235.38 184.423C234.126 181.567 233.5 178.502 233.5 175.228V126.169H249.853V175.228C249.853 177.283 250.567 179.042 251.995 180.505C253.458 181.933 255.216 182.647 257.271 182.647H292.485C294.506 182.647 296.247 181.916 297.71 180.453C299.173 178.99 299.904 177.248 299.904 175.228V126.169H316.257V175.228C316.257 178.502 315.63 181.585 314.376 184.476C311.799 190.327 307.584 194.542 301.733 197.119C298.842 198.373 295.759 199 292.485 199ZM383.132 199H347.866C344.697 199 341.684 198.425 338.828 197.276C333.081 194.977 328.831 191.041 326.08 185.468C324.756 182.717 324.094 179.773 324.094 176.639H340.5C340.5 177.927 340.883 179.025 341.649 179.93C342.415 180.801 343.356 181.463 344.47 181.916C345.62 182.368 346.752 182.595 347.866 182.595H383.132C384.247 182.595 385.379 182.368 386.528 181.916C387.678 181.463 388.636 180.801 389.402 179.93C390.168 179.025 390.551 177.927 390.551 176.639C390.551 175.385 390.168 174.322 389.402 173.452C388.636 172.546 387.678 171.867 386.528 171.414C385.379 170.926 384.247 170.683 383.132 170.683H347.866C344.697 170.683 341.684 170.125 338.828 169.011C333.081 166.712 328.831 162.776 326.08 157.203C324.756 154.451 324.094 151.508 324.094 148.374C324.094 145.239 324.756 142.296 326.08 139.544C328.831 133.971 333.081 130.035 338.828 127.736C341.684 126.622 344.697 126.064 347.866 126.064H383.132C386.337 126.064 389.35 126.622 392.171 127.736C397.953 130.035 402.22 133.971 404.971 139.544C406.26 142.296 406.904 145.239 406.904 148.374H390.551C390.551 147.12 390.168 146.057 389.402 145.187C388.636 144.281 387.678 143.602 386.528 143.149C385.379 142.661 384.247 142.417 383.132 142.417H347.866C346.752 142.417 345.62 142.661 344.47 143.149C343.356 143.602 342.415 144.281 341.649 145.187C340.883 146.057 340.5 147.12 340.5 148.374C340.5 149.662 340.883 150.742 341.649 151.613C342.415 152.484 343.356 153.163 344.47 153.65C345.62 154.103 346.752 154.33 347.866 154.33H383.132C386.337 154.33 389.35 154.904 392.171 156.054C397.953 158.353 402.22 162.288 404.971 167.861C406.26 170.613 406.904 173.539 406.904 176.639C406.904 179.773 406.26 182.717 404.971 185.468C402.22 191.041 397.953 194.977 392.171 197.276C389.35 198.425 386.337 199 383.132 199ZM454.605 199H438.252V142.313H411.659V125.96H481.146V142.313H454.605V199ZM570.017 199H549.693L535.43 179.773H503.56V199H487.207V163.42H543.11C546.001 163.42 548.474 162.393 550.529 160.338C552.584 158.283 553.611 155.81 553.611 152.919C553.611 149.993 552.584 147.503 550.529 145.448C548.474 143.393 546.001 142.365 543.11 142.365H487.207V125.96L543.11 126.012C546.802 126.012 550.268 126.726 553.507 128.154C560.125 131.08 564.914 135.852 567.875 142.47C569.303 145.953 570.017 149.436 570.017 152.919C570.017 156.367 569.303 159.833 567.875 163.316C565.018 169.76 560.386 174.462 553.977 177.422L570.017 199ZM594.154 199H577.801V125.96H594.154V199ZM686.63 199H603.82V182.647H686.63V199ZM686.63 142.574H603.82V126.221H686.63V142.574ZM679.942 170.787H610.455V154.434H679.942V170.787ZM751.154 199H715.888C712.718 199 709.705 198.425 706.849 197.276C701.102 194.977 696.853 191.041 694.101 185.468C692.778 182.717 692.116 179.773 692.116 176.639H708.521C708.521 177.927 708.904 179.025 709.67 179.93C710.437 180.801 711.377 181.463 712.492 181.916C713.641 182.368 714.773 182.595 715.888 182.595H751.154C752.268 182.595 753.4 182.368 754.55 181.916C755.699 181.463 756.657 180.801 757.423 179.93C758.19 179.025 758.573 177.927 758.573 176.639C758.573 175.385 758.19 174.322 757.423 173.452C756.657 172.546 755.699 171.867 754.55 171.414C753.4 170.926 752.268 170.683 751.154 170.683H715.888C712.718 170.683 709.705 170.125 706.849 169.011C701.102 166.712 696.853 162.776 694.101 157.203C692.778 154.451 692.116 151.508 692.116 148.374C692.116 145.239 692.778 142.296 694.101 139.544C696.853 133.971 701.102 130.035 706.849 127.736C709.705 126.622 712.718 126.064 715.888 126.064H751.154C754.358 126.064 757.371 126.622 760.192 127.736C765.974 130.035 770.241 133.971 772.993 139.544C774.281 142.296 774.926 145.239 774.926 148.374H758.573C758.573 147.12 758.19 146.057 757.423 145.187C756.657 144.281 755.699 143.602 754.55 143.149C753.4 142.661 752.268 142.417 751.154 142.417H715.888C714.773 142.417 713.641 142.661 712.492 143.149C711.377 143.602 710.437 144.281 709.67 145.187C708.904 146.057 708.521 147.12 708.521 148.374C708.521 149.662 708.904 150.742 709.67 151.613C710.437 152.484 711.377 153.163 712.492 153.65C713.641 154.103 714.773 154.33 715.888 154.33H751.154C754.358 154.33 757.371 154.904 760.192 156.054C765.974 158.353 770.241 162.288 772.993 167.861C774.281 170.613 774.926 173.539 774.926 176.639C774.926 179.773 774.281 182.717 772.993 185.468C770.241 191.041 765.974 194.977 760.192 197.276C757.371 198.425 754.358 199 751.154 199Z" fill="url(#paint0_linear_1_2207)"/>
</g>
<defs>
<filter id="filter0_d_1_2207" x="0.0219727" y="0.959961" width="794.904" height="238.04" filterUnits="userSpaceOnUse" color-interpolation-filters="sRGB">
<feFlood flood-opacity="0" result="BackgroundImageFix"/>
<feColorMatrix in="SourceAlpha" type="matrix" values="0 0 0 0 0 0 0 0 0 0 0 0 0 0 0 0 0 0 127 0" result="hardAlpha"/>
<feOffset dy="20"/>
<feGaussianBlur stdDeviation="10"/>
<feComposite in2="hardAlpha" operator="out"/>
<feColorMatrix type="matrix" values="0 0 0 0 0 0 0 0 0 0 0 0 0 0 0 0 0 0 0.5 0"/>
<feBlend mode="normal" in2="BackgroundImageFix" result="effect1_dropShadow_1_2207"/>
<feBlend mode="normal" in="SourceGraphic" in2="effect1_dropShadow_1_2207" result="shape"/>
</filter>
<linearGradient id="paint0_linear_1_2207" x1="-91" y1="97" x2="886" y2="97" gradientUnits="userSpaceOnUse">
<stop stop-color="#E65C00"/>
<stop offset="1" stop-color="#F9D423"/>
</linearGradient>
</defs>
</svg>
