<svg width="41" height="41" viewBox="0 0 41 41" fill="none" xmlns="http://www.w3.org/2000/svg">
<path d="M39.9125 21.45L31.25 17.4625V6.03747C31.246 5.79777 31.1732 5.56428 31.0402 5.36481C30.9073 5.16535 30.7197 5.00833 30.5 4.91247L21.125 0.59997C20.9605 0.523818 20.7813 0.484375 20.6 0.484375C20.4187 0.484375 20.2395 0.523818 20.075 0.59997L10.7 4.91247C10.483 5.01288 10.2994 5.17342 10.1709 5.37503C10.0424 5.57665 9.97441 5.81089 9.975 6.04997V17.475L1.35 21.45C1.13303 21.5504 0.949402 21.7109 0.8209 21.9125C0.692399 22.1141 0.624412 22.3484 0.625004 22.5875V34.8125C0.624412 35.0516 0.692399 35.2858 0.8209 35.4874C0.949402 35.689 1.13303 35.8496 1.35 35.95L10.725 40.2625C10.8896 40.3386 11.0687 40.3781 11.25 40.3781C11.4313 40.3781 11.6105 40.3386 11.775 40.2625L20.625 36.1875L29.475 40.2625C29.6395 40.3386 29.8187 40.3781 30 40.3781C30.1813 40.3781 30.3605 40.3386 30.525 40.2625L39.9 35.95C40.117 35.8496 40.3006 35.689 40.4291 35.4874C40.5576 35.2858 40.6256 35.0516 40.625 34.8125V22.5875C40.6267 22.3497 40.5606 22.1165 40.4344 21.915C40.3082 21.7135 40.1271 21.5522 39.9125 21.45ZM36.4 22.5875L30.0125 25.5L23.625 22.5875L30.0125 19.65L36.4 22.5875ZM20.625 3.09997L27.0125 6.03747L20.625 8.97497L14.25 6.03747L20.625 3.09997ZM11.25 19.6375L17.6375 22.575L11.25 25.5L4.8625 22.5875L11.25 19.6375ZM19.375 34L11.25 37.75L3.125 34V24.5375L10.725 28C10.8862 28.0724 11.0608 28.1099 11.2375 28.1099C11.4142 28.1099 11.5889 28.0724 11.75 28L19.35 24.5L19.375 34ZM12.5 17.4625V7.99997L20.1 11.5C20.2645 11.5761 20.4437 11.6156 20.625 11.6156C20.8063 11.6156 20.9855 11.5761 21.15 11.5L28.75 7.99997V17.475L20.625 21.225L12.5 17.4625ZM38.1375 34.0125L30.0125 37.7625L21.875 34.0125V24.525L29.4875 28C29.6469 28.0706 29.8194 28.1071 29.9938 28.1071C30.1681 28.1071 30.3406 28.0706 30.5 28L38.1 24.5L38.1375 34.0125Z" fill="#F8F8F8"/>
</svg>
